<?xml version="1.0" encoding="UTF-8"?>
<svg width="30px" height="26px" viewBox="0 0 30 26" version="1.1" xmlns="http://www.w3.org/2000/svg" xmlns:xlink="http://www.w3.org/1999/xlink">
    <!-- Generator: Sketch 60.1 (88133) - https://sketch.com -->
    <title>shopping-basket</title>
    <desc>Created with Sketch.</desc>
    <g id="Page-1" stroke="none" stroke-width="1" fill="none" fill-rule="evenodd">
        <g id="Desktop-HD" transform="translate(-1155.000000, -128.000000)" fill="#000000" fill-rule="nonzero">
            <g id="Group-5" transform="translate(1055.000000, 128.000000)">
                <g id="shopping-basket" transform="translate(100.000000, 0.000000)">
                    <path d="M15.5,13 C15.7759765,13 16,12.7759765 16,12.5 C16,12.2240235 15.7759765,12 15.5,12 C15.2240235,12 15,12.2240235 15,12.5 C15,12.7759765 15.2240235,13 15.5,13 Z" id="Path"></path>
                    <path d="M27.65625,8.27223392 L24.1912079,8.27223392 L18.8610077,0.876662385 C18.3821869,0.0491357599 17.3274994,-0.245403687 16.4897919,0.222489321 C15.6406403,0.698230528 15.3353119,1.77690045 15.8072663,2.63351166 C15.8207702,2.65774882 15.8356476,2.68106273 15.852356,2.70322243 L20.0331116,8.27223392 L9.9668884,8.27223392 L14.147644,2.70322243 C14.1641235,2.68106273 14.1792298,2.65774882 14.1927338,2.63351166 C14.6635437,1.77897796 14.3616486,0.699384724 13.5095215,0.22202763 C12.673645,-0.244941997 11.6189575,0.0493666345 11.1392212,0.876200695 L5.80879213,8.27223392 L2.34375,8.27223392 C1.05148313,8.27223392 0,9.33266829 0,10.6359361 C0,11.6638233 0.661468477,12.5587524 1.59324645,12.8754515 C1.69258119,12.9530105 1.81663512,12.9996382 1.95167543,12.9996382 C1.97868346,12.9996382 2.00408936,13.001254 2.03063965,13.0049473 C2.28286746,13.0391102 2.48268129,13.2320843 2.52845766,13.4846126 L4.52178955,24.5446151 C4.67399596,25.3878381 5.40138246,26 6.25144957,26 L23.7485504,26 C24.5986175,26 25.326004,25.3878381 25.4782104,24.5443842 L27.4715423,13.4848435 C27.5173187,13.2320843 27.7173615,13.0391102 27.9705047,13.0049473 C27.9961395,13.001254 28.0215454,12.9996382 28.0483246,12.9996382 C28.1842804,12.9996382 28.3092499,12.9525488 28.4085846,12.8740665 C29.3410492,12.5552899 30,11.6619767 30,10.6359361 C30,9.33266829 28.9485169,8.27223392 27.65625,8.27223392 Z M16.8157196,2.02850549 C16.6818237,1.74897 16.7857361,1.40849537 17.0581055,1.25614732 C17.3416901,1.09756696 17.6992035,1.19982479 17.8555298,1.48397683 C17.8669739,1.50521321 17.8800202,1.52552628 17.8939819,1.54491602 L22.7423859,8.27223392 L21.5027619,8.27223392 L16.8157196,2.02850549 Z M12.1060181,1.5451469 C12.1199798,1.52575709 12.1325684,1.5056749 12.1442413,1.48490015 C12.3010254,1.20051723 12.6587677,1.09802859 12.9412079,1.25568569 C13.214035,1.40849537 13.3184051,1.74850837 13.1842804,2.02850549 L8.49723814,8.27223392 L7.25761412,8.27223392 L12.1060181,1.5451469 Z M27.65625,11.8177871 L17.34375,11.8177871 C17.0201111,11.8177871 16.7578125,12.0823187 16.7578125,12.4087127 C16.7578125,12.7351067 17.0201111,12.9936367 17.34375,12.9936367 L26.3905335,12.9936367 C26.3598633,13.0818138 26.3356018,13.1732226 26.3186646,13.2674013 L24.3251038,24.3329437 C24.2745209,24.614095 24.0319061,24.8181489 23.7485504,24.8181489 L6.25144957,24.8181489 C5.96786496,24.8181489 5.72547914,24.614095 5.67466734,24.3331745 L3.68133545,13.2731721 C3.66439816,13.1789934 3.64013672,13.0875845 3.60946652,12.9996382 L12.65625,12.9996382 C12.9798889,12.9996382 13.2421875,12.7351067 13.2421875,12.4087127 C13.2421875,12.0823187 12.9798889,11.8177871 12.65625,11.8177871 L2.34375,11.8177871 C1.6921234,11.8177871 1.171875,11.2822609 1.171875,10.6359361 C1.171875,9.98430221 1.69761656,9.45408499 2.34375,9.45408499 L27.65625,9.45408499 C28.3023834,9.45408499 28.828125,9.98430221 28.828125,10.6359361 C28.828125,11.2921866 28.2957458,11.8177871 27.65625,11.8177871 Z" id="Shape"></path>
                    <path d="M15.5,15 C14.6728516,15 14,15.7689732 14,16.7142857 L14,21.2857143 C14,22.2310268 14.6728516,23 15.5,23 C16.3271485,23 17,22.2310268 17,21.2857143 L17,16.7142857 C17,15.7671875 16.328711,15 15.5,15 Z M16,21.2857143 C16,21.6008929 15.7757813,21.8571429 15.5,21.8571429 C15.2242188,21.8571429 15,21.6008929 15,21.2857143 L15,16.7142857 C15,16.3991071 15.2242188,16.1428571 15.5,16.1428571 C15.7759766,16.1428571 16,16.3988839 16,16.7142857 L16,21.2857143 Z" id="Shape"></path>
                    <path d="M21.5,23 C22.3271485,23 23,22.2310268 23,21.2857143 L23,16.7142857 C23,15.7671875 22.328711,15 21.5,15 C20.6728516,15 20,15.7689732 20,16.7142857 L20,21.2857143 C20,22.2310268 20.6728516,23 21.5,23 Z M21,16.7142857 C21,16.3991071 21.2242188,16.1428571 21.5,16.1428571 C21.7759765,16.1428571 22,16.3988839 22,16.7142857 L22,21.2857143 C22,21.6008929 21.7757813,21.8571429 21.5,21.8571429 C21.2242188,21.8571429 21,21.6008929 21,21.2857143 L21,16.7142857 Z" id="Shape"></path>
                    <path d="M8.5,15 C7.67285155,15 7,15.7689732 7,16.7142857 L7,21.2857143 C7,22.2310268 7.67285155,23 8.5,23 C9.32714845,23 10,22.2310268 10,21.2857143 L10,16.7142857 C10,15.7671875 9.32871095,15 8.5,15 Z M9,21.2857143 C9,21.6008929 8.77578125,21.8571429 8.5,21.8571429 C8.22421875,21.8571429 8,21.6008929 8,21.2857143 L8,16.7142857 C8,16.3991071 8.22421875,16.1428571 8.5,16.1428571 C8.77597655,16.1428571 9,16.3986607 9,16.7142857 L9,21.2857143 Z" id="Shape"></path>
                </g>
            </g>
        </g>
    </g>
</svg>