<?xml version="1.0" encoding="UTF-8"?>
<svg width="19px" height="11px" viewBox="0 0 19 11" version="1.1" xmlns="http://www.w3.org/2000/svg" xmlns:xlink="http://www.w3.org/1999/xlink">
    <!-- Generator: Sketch 60.1 (88133) - https://sketch.com -->
    <title>coupon</title>
    <desc>Created with Sketch.</desc>
    <g id="Page-1" stroke="none" stroke-width="1" fill="none" fill-rule="evenodd">
        <g id="Edit-Shipping-Address" transform="translate(-351.000000, -236.000000)" fill="#DA4356" fill-rule="nonzero">
            <g id="Coupon" transform="translate(261.000000, 233.000000)">
                <g id="coupon" transform="translate(90.000000, 3.000000)">
                    <path d="M18.3851001,0 L14.2598525,0 C14.0955699,0 13.9623478,0.136289571 13.9623478,0.304439535 L13.9623478,0.629157317 C13.9623478,0.819408292 13.8110906,0.974191321 13.6251733,0.974191321 C13.4392561,0.974191321 13.2879989,0.819408292 13.2879989,0.629157317 L13.2879989,0.304439535 C13.2879989,0.136327545 13.1548138,0 12.9904942,0 L0.614825723,0 C0.275795798,0 0,0.2822246 0,0.629157317 L0,10.3708427 C0,10.7177754 0.275795798,11 0.614825723,11 L12.9905684,11 C13.154851,11 13.2880731,10.8637104 13.2880731,10.6955605 L13.2880731,10.3708427 C13.2880731,10.1805917 13.4393303,10.0258087 13.6252476,10.0258087 C13.8111648,10.0258087 13.962422,10.1805917 13.962422,10.3708427 L13.962422,10.6955605 C13.962422,10.8636725 14.095607,11 14.2599267,11 L18.3851743,11 C18.7242042,11 19,10.7177754 19,10.3708427 L19,0.629157317 C19,0.2822246 18.72413,0 18.3851001,0 Z M18.4049535,10.3708427 C18.4049535,10.3820451 18.3960844,10.3911209 18.3851372,10.3911209 L14.5573572,10.3911209 L14.5573572,10.3708427 C14.5573572,9.95130321 14.2912098,9.59442124 13.9227151,9.46705562 L13.9227151,9.07193358 C13.9227151,8.90382159 13.7895301,8.76749404 13.6252104,8.76749404 C13.4609279,8.76749404 13.3277058,8.90378362 13.3277058,9.07193358 L13.3277058,9.46705562 C12.9592111,9.59442124 12.6930637,9.95130321 12.6930637,10.3708427 L12.6930637,10.3911209 L0.614825723,10.3911209 C0.6038785,10.3911209 0.595009394,10.3820451 0.595009394,10.3708427 L0.595009394,0.629157317 C0.595009394,0.617954914 0.6038785,0.608879069 0.614825723,0.608879069 L12.6930637,0.608879069 L12.6930637,0.629157317 C12.6930637,1.04869679 12.9592111,1.40557876 13.3277058,1.53294438 L13.3277058,1.92806642 C13.3277058,2.09617841 13.4608908,2.23250596 13.6252104,2.23250596 C13.789493,2.23250596 13.9227151,2.09621638 13.9227151,1.92806642 L13.9227151,1.53294438 C14.2912098,1.40557876 14.5573572,1.04869679 14.5573572,0.629157317 L14.5573572,0.608879069 L18.3851001,0.608879069 C18.3960473,0.608879069 18.4049535,0.617954914 18.4049535,0.629157317 L18.4049535,10.3708427 L18.4049535,10.3708427 Z" id="Shape"></path>
                    <path d="M13.5,3 C13.2238992,3 13,3.1083112 13,3.2419423 L13,3.7580577 C13,3.89165862 13.2238368,4 13.5,4 C13.7761008,4 14,3.8916888 14,3.7580577 L14,3.2419423 C14,3.10834138 13.7761008,3 13.5,3 Z" id="Path"></path>
                    <path d="M13.5,5 C13.2238992,5 13,5.1083112 13,5.2419423 L13,5.7580577 C13,5.89165862 13.2238368,6 13.5,6 C13.7761008,6 14,5.8916888 14,5.7580577 L14,5.2419423 C14,5.1083112 13.7761008,5 13.5,5 Z" id="Path"></path>
                    <path d="M13.5,7 C13.2238992,7 13,7.1083112 13,7.2419423 L13,7.7580577 C13,7.89165862 13.2238368,8 13.5,8 C13.7761008,8 14,7.8916888 14,7.7580577 L14,7.2419423 C14,7.1083112 13.7761008,7 13.5,7 Z" id="Path"></path>
                    <path d="M8.91709791,2.08290172 C8.80656179,1.97236609 8.62735984,1.97236609 8.51685902,2.08290172 L3.08290209,7.51686998 C2.97236597,7.62740561 2.97236597,7.80660678 3.08290209,7.9171071 C3.13815249,7.97239257 3.21059584,8 3.28300388,8 C3.35541192,8 3.42785527,7.97239257 3.48310567,7.9171071 L8.91709791,2.48313884 C9.02763403,2.37263852 9.02763403,2.19340205 8.91709791,2.08290172 Z" id="Path"></path>
                    <path d="M4.5,2 C3.6728879,2 3,2.67292343 3,3.5 C3,4.32707657 3.67292343,5 4.5,5 C5.32707657,5 6,4.32707657 6,3.5 C6,2.67292343 5.32707657,2 4.5,2 Z M4.5,4.43039009 C3.98698515,4.43039009 3.56960991,4.01301485 3.56960991,3.5 C3.56960991,2.98698515 3.98698515,2.56960991 4.5,2.56960991 C5.01301485,2.56960991 5.43039009,2.98698515 5.43039009,3.5 C5.43039009,4.01301485 5.01297932,4.43039009 4.5,4.43039009 Z" id="Shape"></path>
                    <path d="M8.5,6 C7.6728879,6 7,6.67292343 7,7.5 C7,8.32707657 7.67292343,9 8.5,9 C9.32707657,9 10,8.32707657 10,7.5 C10,6.67292343 9.32707657,6 8.5,6 Z M8.5,8.43039009 C7.98698515,8.43039009 7.56960991,8.01301485 7.56960991,7.5 C7.56960991,6.98698515 7.98698515,6.56960991 8.5,6.56960991 C9.01301485,6.56960991 9.43039009,6.98698515 9.43039009,7.5 C9.43039009,8.01301485 9.01297932,8.43039009 8.5,8.43039009 Z" id="Shape"></path>
                </g>
            </g>
        </g>
    </g>
</svg>