<svg xmlns="http://www.w3.org/2000/svg" width="892.976" height="297.906" viewBox="0 0 892.976 297.906">
  <g id="Group_2" data-name="Group 2" transform="translate(-53.512 -351.047)">
    <path id="Path_1" data-name="Path 1" d="M946.488,413.607c-.6,2.5-1.177,5.007-1.817,7.5-6,23.356-25.182,37.474-50.291,36.835a97.478,97.478,0,0,1-28.13-4.689c-3.1-1.018-7,.349-10.527.656-4.675.406-9.347,1.2-14.02,1.209q-65.892.141-131.784.056h-4.8c1.1-7.253,2.13-14.079,3.129-20.679h55.168c-.343.416-.068.238-.071.064-.228-13.5-.374-27-.819-40.5-.083-2.511-1.164-5.07-2.148-7.457-3.538-8.581-10.005-12.981-19.336-13.015-7.322-.027-14.643-.009-21.964-.011H714.7c.97-6.8,1.794-13.042,2.829-19.248a2.936,2.936,0,0,1,2.118-1.873c12.388.232,24.931-.495,37.122,1.229,18.261,2.582,31.437,17.178,34.621,36.632,1.174,7.176,1.263,14.554,1.513,21.852.242,7.045.053,14.1.053,21.428,1.318.1,2.387.249,3.455.25,15.884.015,31.768-.087,47.65.091,3.274.037,4.519-1.4,4.85-4.18a51.217,51.217,0,0,0,.266-5.944c.022-13.277-.007-26.555.017-39.833.027-15.454,6.339-24.4,21.116-29,5.868-1.828,12.05-2.652,18.089-3.933h12.661a24.069,24.069,0,0,0,2.841.73c20.223,2.709,34.986,15.61,40.368,35.37.839,3.083,1.486,6.219,2.222,9.33Zm-70.054-33.9c.311,3.886.777,7.173.8,10.464.089,12.518.151,25.04-.045,37.555-.049,3.081,1.052,4.215,3.873,4.4,4.941.33,9.872.979,14.815,1.075,10.7.207,17.7-4.9,20.585-15.173a53,53,0,0,0,.086-28.286c-1.487-5.618-4.547-10.508-10.286-12.367C895.905,374.028,885.838,375.953,876.434,379.711Z"/>
    <path id="Path_2" data-name="Path 2" d="M694.717,352.859c-1.065,6.968-2.093,13.695-3.2,20.906H687.07q-27.926,0-55.852.016a64.229,64.229,0,0,0-7.8.359c-7.611.949-11.645,5.7-11.3,13.076.346,7.3,4.9,12.138,12.257,12.341,9.425.261,18.865-.014,28.293.191a67.029,67.029,0,0,1,12.545,1.281c15.608,3.345,25.517,15.829,25.288,31.815a53.973,53.973,0,0,1-1.46,12.143c-3.171,12.778-12.518,18.936-24.623,21.318a99.247,99.247,0,0,1-18.833,1.826c-41.328.086-82.66.174-123.985-.225-25.775-.249-42.828-16.991-44.291-42.678-.72-12.633-1.31-25.312,2.211-37.712,5.822-20.495,21.831-32.978,43.175-33.356,13.012-.231,26.031-.043,39.326-.043-1.046,7.132-2.047,13.965-3.118,21.272-5.007,0-9.939-.01-14.87,0-4.84.013-9.686-.088-14.519.108-8.748.356-15.277,4.558-18.588,12.6a42.158,42.158,0,0,0-3.279,14.364c-.29,9.005-.4,18.17.945,27.035,1.562,10.249,8.6,16.331,18.9,16.952,12.121.731,24.3.535,36.458.578q40.026.143,80.053.105a32.309,32.309,0,0,0,5.921-.406c8.074-1.509,12.7-7.466,12.028-15.312-.66-7.774-6.217-12.8-14.52-12.94-11.661-.2-23.343.062-34.982-.542-13.813-.716-23.82-8.487-27.418-20.317-4.166-13.7-.357-28.131,9.614-35.9,7.954-6.2,17.373-8.765,27.132-8.941,23.822-.431,47.655-.232,71.484-.273A7.908,7.908,0,0,1,694.717,352.859Z"/>
    <g id="Group_1" data-name="Group 1">
      <path id="Path_3" data-name="Path 3" d="M946.488,648.953c-9.261-1.676-18.5-3.509-27.8-4.928-2.583-.4-5.389.253-8.033.741-11.285,2.087-22.557,3.431-33.9.436-13.465-3.556-21.116-13.029-21.575-26.747-.477-14.222,6.092-24.408,19.835-28.249,8.125-2.271,16.777-2.853,25.244-3.637,5.762-.534,11.613-.1,17.354-.1,2.783-11.8-2.655-19.172-14.385-19.378-12.916-.226-25.321,2.684-37.463,6.863-1.152.4-2.325.728-3.842,1.2-1.043-7.063-2.048-13.866-3.091-20.931,20.069-6.435,40.01-12.226,61.266-7.982,15.512,3.1,23.744,12.029,25.728,27.61a28.138,28.138,0,0,0,.662,2.862Zm-39.143-45.409-.094-.455c-5.35.75-10.851.957-16.006,2.4-5.344,1.495-7.826,6.518-7.341,12.347.415,4.991,3.385,9.036,8.774,9.537a63.5,63.5,0,0,0,16.824-.922c9.216-1.643,9.217-1.961,9.131-11.412-.034-3.656.916-8.488-.995-10.61C915.954,602.56,910.906,603.721,907.345,603.544Z"/>
      <path id="Path_4" data-name="Path 4" d="M620.726,645.7H591.515v-4.574q0-27.927-.011-55.854a50.41,50.41,0,0,0-.239-5.948c-.675-5.633-4.326-9.46-9.819-10.055a32.422,32.422,0,0,0-18.369,3.15c.192,8.2.488,15.932.53,23.668.083,15.143.025,30.286.025,45.429v4.188H534.489v-4.284c0-18.618-.175-37.239.055-55.854.18-14.495-6.316-18.263-19.888-15.879-8.139,1.43-8.1,1.64-8.1,9.782v66.1H476.909v-4.487q0-36.12,0-72.239c.006-12.21,3.106-16.334,14.94-19.573,14.626-4,29.455-5.962,44.506-2.961a47.307,47.307,0,0,1,11.73,4.436,5.648,5.648,0,0,0,5.418.355c14.34-6.038,29.156-7.894,44.386-4.172,13.368,3.266,21.739,12.665,22.232,26.382.685,19.09.454,38.213.6,57.322C620.757,635.576,620.726,640.516,620.726,645.7Z"/>
      <path id="Path_5" data-name="Path 5" d="M809.2,549.221v-4.346c0-12.158.029-24.316-.026-36.474-.009-1.945.245-3.286,2.552-3.655,8.8-1.41,17.582-2.943,26.92-4.524v4.188q0,59.922-.006,119.844c0,11.441-2.51,14.936-13.41,18.286a97.468,97.468,0,0,1-43.408,3.249c-21.183-3.154-35.345-19.1-37.037-41.346-.726-9.554-.427-19.063,2.055-28.434,4.979-18.8,18.368-29.96,37.775-30.354,6.589-.134,13.218,1.444,19.818,2.32A42.482,42.482,0,0,1,809.2,549.221Zm0,47.6v-14.5c0-13.292,0-13.292-13.441-14.484-10.39-.921-17.957,4.116-20.6,14.166a53.724,53.724,0,0,0,.065,27.928c2.764,10.285,9.808,15.478,20.454,15.28,3.2-.059,6.379-.767,9.581-1.012,3.019-.232,4.14-1.486,4.026-4.7C809.017,611.944,809.2,604.377,809.2,596.817Z"/>
      <path id="Path_6" data-name="Path 6" d="M699.894,586.5c.962-14.9-3.635-19.808-17.842-19.41-11.751.329-23.079,2.972-34.154,6.8-1.155.4-2.327.747-4.033,1.291-.951-6.66-1.921-13.1-2.712-19.565a2.644,2.644,0,0,1,1.528-1.972c15.983-5.13,32.1-9.625,49.146-8.745a65.471,65.471,0,0,1,7.768.842c19.19,3.323,28.276,13.849,28.432,33.456.178,22.342.046,44.685.042,67.028,0,.736-.075,1.471-.139,2.627-3.271-.557-6.432-.878-9.477-1.653a77.283,77.283,0,0,0-35.933-1.024,49.144,49.144,0,0,1-26.457-1.749c-12.077-4.171-18.615-13.161-18.995-26.063-.388-13.156,5.339-22.405,17.1-27.364,8.022-3.382,16.543-4.255,25.129-4.463C686.09,586.368,692.887,586.5,699.894,586.5Zm.6,17.786c-8.5,0-16.33-.51-24.057.15-7.052.6-11.08,6.1-10.737,12.859.318,6.264,4.854,11,11.95,10.653s14.13-2.13,21.164-3.431a2.685,2.685,0,0,0,1.607-1.991C700.551,616.469,700.5,610.409,700.5,604.285Z"/>
    </g>
    <rect id="Rectangle_1" data-name="Rectangle 1" width="377.597" height="125.121" transform="translate(53.512 351.047)" fill="#008bcf"/>
    <rect id="Rectangle_2" data-name="Rectangle 2" width="377.597" height="125.121" transform="translate(53.512 521.606)" fill="#80aa2c"/>
  </g>
</svg>
