<?xml version="1.0" encoding="UTF-8"?>
<svg width="16px" height="17px" viewBox="0 0 16 17" version="1.1" xmlns="http://www.w3.org/2000/svg" xmlns:xlink="http://www.w3.org/1999/xlink">
    <!-- Generator: Sketch 60.1 (88133) - https://sketch.com -->
    <title>Combined Shape</title>
    <desc>Created with Sketch.</desc>
    <defs>
        <path d="M12,0.00118460388 C14.209139,0.00118460388 16,1.7920456 16,4.0011846 L16.0008196,15.5803023 C14.5004834,16.3878005 12.8007747,16.8432899 11,16.8432899 C4.92486775,16.8432899 1.77635684e-13,11.6592185 1.77635684e-13,5.2643425 C1.77635684e-13,3.36866143 0.432773696,1.57938006 1.19999455,-1.50990331e-14 L12,0.00118460388 Z M11.4025107,5.36930369 L7.20929711,9.66247339 L5.59749439,8.01226533 C5.46081682,7.87231707 5.23922334,7.87233107 5.10251843,8.01226533 C4.96582719,8.15219959 4.96582719,8.37907311 5.10251843,8.51902136 L6.96180913,10.4225864 C7.09844568,10.5625207 7.32020322,10.5624227 7.45678509,10.4225864 L11.8974867,5.87607372 C12.0341779,5.73613946 12.0341643,5.50925195 11.8974867,5.36930369 C11.7608091,5.22935543 11.5392157,5.22935543 11.4025107,5.36930369 Z" id="path-1"></path>
    </defs>
    <g id="Page-1" stroke="none" stroke-width="1" fill="none" fill-rule="evenodd">
        <g id="Edit-Pickup-Option" transform="translate(-784.000000, -302.000000)">
            <g id="Bank-transfer" transform="translate(784.000000, 302.000000)">
                <mask id="mask-2" fill="white">
                    <use xlink:href="#path-1"></use>
                </mask>
                <use id="Combined-Shape" fill="#5CD4C4" xlink:href="#path-1"></use>
            </g>
        </g>
    </g>
</svg>