<?xml version="1.0" encoding="UTF-8"?>
<svg width="18px" height="13px" viewBox="0 0 18 13" version="1.1" xmlns="http://www.w3.org/2000/svg" xmlns:xlink="http://www.w3.org/1999/xlink">
    <!-- Generator: Sketch 60.1 (88133) - https://sketch.com -->
    <title>id-card</title>
    <desc>Created with Sketch.</desc>
    <g id="Page-1" stroke="none" stroke-width="1" fill="none" fill-rule="evenodd">
        <g id="id-card" fill="#000000" fill-rule="nonzero">
            <path d="M16.7349,0 L1.2651,0 C0.5676,0 0,0.559 0,1.24593182 L0,11.7540682 C0,12.441 0.5676,13 1.2651,13 L16.7349,13 C17.4324,13 18,12.441 18,11.7540682 L18,1.24593182 C18,0.559 17.4324,0 16.7349,0 Z M17.4,11.7540682 C17.4,12.1154091 17.1018,12.4090909 16.7349,12.4090909 L1.2651,12.4090909 C0.8982,12.4090909 0.6,12.1154091 0.6,11.7540682 L0.6,1.24593182 C0.6,0.884590909 0.8982,0.590909091 1.2651,0.590909091 L16.7349,0.590909091 C17.1018,0.590909091 17.4,0.884590909 17.4,1.24593182 L17.4,11.7540682 Z" id="Shape"></path>
            <path d="M7.2926,8.78496649 L6.2,8.2534956 L6.2,8.14291537 C6.6884,7.88889514 7.0319,7.47057612 7.2236,6.89595894 C7.5143,6.7490901 7.7,6.46306733 7.7,6.14247037 L7.7,5.85673334 C7.7,5.59214084 7.5707,5.34669273 7.3547,5.18553704 C7.1675,4.10545104 6.3761,3.55797888 5,3.55797888 C4.9349,3.55797888 4.8713,3.56026477 4.8092,3.56483657 C4.4486,3.59255306 4.1003,3.51854717 3.842,3.35339116 C3.7193,3.27452774 3.6266,3.19795021 3.5675,3.12680169 C3.4343,2.96450305 3.1568,2.95735963 3.0146,3.10908599 C2.9465,3.1816632 2.9144,3.27938527 2.9264,3.37653586 C2.939,3.48340151 2.9579,3.60769712 2.9864,3.74399369 C3.0443,4.0225873 3.0443,4.0225873 2.963,4.18917199 C2.9324,4.25231988 2.8946,4.32918314 2.8502,4.43290568 C2.7509,4.66463842 2.6804,4.91837291 2.6399,5.18925162 C2.4272,5.35069305 2.3,5.59471247 2.3,5.85673334 L2.3,6.14247037 C2.3,6.46306733 2.4857,6.7490901 2.7764,6.89595894 C2.9681,7.47086186 3.3116,7.88918088 3.8,8.14291537 L3.8,8.25035249 L2.6693,8.78125191 C2.2565,8.99555469 2,9.40701602 2,9.85505169 L2,10.2336533 C2,10.4631001 2,11 5,11 C8,11 8,10.4631001 8,10.2336533 L8,9.87791066 C8,9.41158781 7.7282,8.99241158 7.2926,8.78496649 Z" id="Path"></path>
            <path d="M9.33333333,5 L12.6666667,5 C12.851,5 13,4.7765 13,4.5 C13,4.2235 12.851,4 12.6666667,4 L9.33333333,4 C9.149,4 9,4.2235 9,4.5 C9,4.7765 9.149,5 9.33333333,5 Z" id="Path"></path>
            <path d="M13.3333333,5 L13.6666667,5 C13.851,5 14,4.7765 14,4.5 C14,4.2235 13.851,4 13.6666667,4 L13.3333333,4 C13.149,4 13,4.2235 13,4.5 C13,4.7765 13.149,5 13.3333333,5 Z" id="Path"></path>
            <path d="M9.66666667,9 L9.33333333,9 C9.149,9 9,9.2235 9,9.5 C9,9.7765 9.149,10 9.33333333,10 L9.66666667,10 C9.851,10 10,9.7765 10,9.5 C10,9.2235 9.851,9 9.66666667,9 Z" id="Path"></path>
            <path d="M10.75,9 L10.25,9 C10.11175,9 10,9.2235 10,9.5 C10,9.7765 10.11175,10 10.25,10 L10.75,10 C10.88825,10 11,9.7765 11,9.5 C11,9.2235 10.88825,9 10.75,9 Z" id="Path"></path>
            <path d="M12.6666667,9 L12.3333333,9 C12.149,9 12,9.2235 12,9.5 C12,9.7765 12.149,10 12.3333333,10 L12.6666667,10 C12.851,10 13,9.7765 13,9.5 C13,9.2235 12.851,9 12.6666667,9 Z" id="Path"></path>
            <path d="M14.75,9 L14.25,9 C14.11175,9 14,9.2235 14,9.5 C14,9.7765 14.11175,10 14.25,10 L14.75,10 C14.88825,10 15,9.7765 15,9.5 C15,9.2235 14.88825,9 14.75,9 Z" id="Path"></path>
            <path d="M15.145,9.13962264 C15.0545,9.23471698 15,9.36603774 15,9.49685535 C15,9.62767296 15.0545,9.75849057 15.145,9.85408805 C15.2395,9.94465409 15.37,10 15.5,10 C15.63,10 15.76,9.94465409 15.855,9.85408805 C15.945,9.75849057 16,9.62767296 16,9.49685535 C16,9.36603774 15.945,9.23471698 15.855,9.13962264 C15.665,8.95345912 15.33,8.95345912 15.145,9.13962264 Z" id="Path"></path>
            <path d="M15.7083333,5 L9.29166667,5 C9.130375,5 9,5.2235 9,5.5 C9,5.7765 9.130375,6 9.29166667,6 L15.7083333,6 C15.869625,6 16,5.7765 16,5.5 C16,5.2235 15.869625,5 15.7083333,5 Z" id="Path"></path>
            <path d="M15.7083333,7 L9.29166667,7 C9.130375,7 9,7.2235 9,7.5 C9,7.7765 9.130375,8 9.29166667,8 L15.7083333,8 C15.869625,8 16,7.7765 16,7.5 C16,7.2235 15.869625,7 15.7083333,7 Z" id="Path"></path>
        </g>
    </g>
</svg>